<svg xmlns="http://www.w3.org/2000/svg" enable-background="new 0 0 64 64" viewBox="0 0 64 64"><path fill="#1d1d1b" d="M4.4,28.7l0.2,0.1C4.5,28.7,4.4,28.7,4.4,28.7z"/><path fill="#1d1d1b" d="M59.5,33.2L59.5,33.2c-0.2-0.2-0.4-0.3-0.6-0.5l-0.4,0.4c-1.6-0.3-3.2-0.5-4.8-0.7c-2.8-1.4-3.8-5.2-4.5-8.1c-0.7-2.8-1.1-5.5-1.1-8.4c2.2-2.2,4.5-4.4,6.7-6.6l0.4-0.4c0.1-0.1,0.2-0.2,0.3-0.3c0.3-0.3-0.2-0.7-0.4-0.4l0,0c-0.1,0-0.2,0.1-0.2,0.2l-0.4,0.4l-0.6,0.6C52,11.2,50,13.1,48.1,15v0c0-0.2-0.3-0.3-0.4-0.2c-2.8,2.5-7.2,0.5-9.7-1.5c-2.2-1.8-3.8-4.2-5.3-6.6c-0.1-2.3-0.2-4.5-0.5-6.7l-0.4,0.7c0.1,2,0.1,4,0.1,5.9c-2,5.7-5.2,12.7-12.1,12.9c-1.6-1.5-3.2-3-4.8-4.4l-0.2-0.3c0,0,0,0,0,0c-0.9-0.9-1.9-1.7-2.8-2.5c-0.1-0.1-0.2-0.1-0.2,0c-0.1,0-0.1,0-0.1,0.1l2.9,3c0.6,5.1-1.3,10-5,13.5c-1.5,0-2.9-0.1-4.4-0.1c0,0,0,0,0,0l-0.4,0H4.6c0,0,0,0-0.1,0L4.9,29c0,0,0,0,0,0c1.5,0.1,3,0.2,4.5,0.3c0,0,0,0,0,0c4.7,4.2,6.3,10.7,4.3,16.6c0,0.1,0,0.1,0,0.2c-1.4,1.2-2.8,2.5-4.2,3.7c-0.1,0-0.2,0-0.3,0.1C9,49.9,9,50.1,9,50.2c-0.1,0.1-0.1,0.1-0.2,0.1c-0.1,0.1,0,0.3,0.2,0.2c0.1-0.1,0.2-0.1,0.2-0.2h0.1c0,0,0.1,0,0.1,0l0.8-0.8c1.5-1.1,2.9-2.2,4.3-3.4c6.1,0.3,11.3,2.9,15.9,6.9c-0.1,2.1-0.2,4.2-0.2,6.3l0.1,0.2l-0.1,0.8c0,1-0.1,2.1-0.1,3.2c0,0.4,0.6,0.4,0.7,0c0-0.9,0.1-1.8,0.1-2.6c0,0,0,0,0.1,0l0-0.6c0.1-2.2,0.2-4.5,0.2-6.7c4.6-4.2,10.4-6.7,16.6-6.9c1.1,1,2.2,2,3.3,3l0.5,0.4c0.2,0.1,0.3,0.3,0.5,0.4c0,0.1,0.1,0.1,0.2,0.1c0.3,0.3,0.6,0.5,1,0.8c0.3,0.2,0.7-0.1,0.4-0.4c-0.3-0.4-0.7-0.7-1-1.1L52,49.6c-1.2-1.2-2.5-2.4-3.7-3.5c-1.2-5,0.9-10.1,5.1-13c1.9,0.2,3.7,0.4,5.6,0.6l0.6-0.1C59.6,33.5,59.7,33.3,59.5,33.2z M32.8,7.7c1.6,2.6,3.5,5.1,6,6.8c2.1,1.4,5.2,2.6,7.7,1.6c0.3-0.1,0.6-0.3,0.8-0.4c-1.3,1.3-2.7,2.6-4,3.9c0,0-0.1,0-0.1,0c-0.2,0-0.4,0.1-0.6,0.2c-0.1,0-0.1,0-0.2,0c-4.3,1.6-7.5-1.6-9.6-4.9C32.8,12.5,32.8,10.1,32.8,7.7z M44.9,31.4c-1.6-0.2-3.2-0.3-4.8-0.4c0-0.1-0.1-0.1-0.2-0.1c0,0,0,0,0,0c-1.9-1.4-2-3.5-1.6-5.6c1.6-1.5,3.1-2.9,4.6-4.4C42.3,24.1,42.2,29.3,44.9,31.4z M41.8,40.3c-1.1-1.1-2.3-2.1-3.4-3.2c-0.4-2,0.2-3.9,1.4-5.5c1.7,0.2,3.4,0.4,5.1,0.6C42.4,34,41.3,37.2,41.8,40.3z M27.6,30.5c1,0.1,2,0.1,3,0.2c0.1,0.1,0.3,0.3,0.4,0.4c-0.8,0.7-1.6,1.5-2.5,2.2C28.7,32.3,28.4,31.2,27.6,30.5z M23,30.2c1.2,0.1,2.5,0.2,3.7,0.3c0,0,0,0.1,0.1,0.1c1,0.6,1.6,1.9,1.3,3c0,0,0,0.1,0,0.1c-1.3,1.1-2.5,2.2-3.8,3.3C24.9,34.6,24.5,32.2,23,30.2z M23.9,24.6c0-0.1,0-0.2,0-0.2c0.7,0.7,1.5,1.4,2.2,2.1c0,0.1,0,0.2,0.1,0.3c0.8,0.9,1,1.9,0.6,3c-1.3-0.1-2.5-0.2-3.8-0.3c0.7-0.8,1-1.8,1.1-2.9C24.1,26,23.9,25.3,23.9,24.6z M27.3,27.7c0.9,0.8,1.7,1.6,2.6,2.4l-2.7-0.2C27.4,29.1,27.5,28.4,27.3,27.7z M26.9,26.2c-0.9-0.8-1.7-1.7-2.6-2.5c0.1,0,0.2,0,0.2-0.1c2.8-1,4.7-2.4,6.1-5.2c0.2-0.4,0.9-2.3,1.3-3.2c0,2.1-0.1,4.2-0.2,6.3c-0.1,0-0.3,0-0.3,0.2c-0.1,1.1-0.4,2.6-1.3,3.4C29.1,25.9,28,26.1,26.9,26.2z M23.4,37.7c-1,0.9-2,1.7-2.9,2.5c0.9-3.2,1.4-6.7-0.9-9.4c-0.2-0.3-0.9-0.7-1.3-1c1.3,0.1,2.6,0.2,3.9,0.3C24,32.3,24.5,35.1,23.4,37.7z M27.4,26.7c1.1-0.1,2.2-0.4,3-1.2c0.7-0.7,1-1.5,1.2-2.4c-0.1,2.3-0.2,4.7-0.3,7c-0.1,0-0.2,0-0.3,0C29.8,29,28.6,27.9,27.4,26.7z M31.6,40.4C31.6,40.3,31.6,40.3,31.6,40.4c0.9-2.9,3.9-4.1,6.4-2.7c0.9,0.8,1.7,1.6,2.6,2.4c-1.6-0.2-3.3,0.7-4.7,1.6c-1.9,1.2-3.6,2.5-4.5,4.4C31.5,44.3,31.5,42.3,31.6,40.4z M38.9,30.8c-2-0.2-4.1-0.3-6.1-0.5c1.6-1.5,3.2-2.9,4.8-4.4C37.4,27.8,37.5,29.5,38.9,30.8z M32.7,15.5c0.7,1,1.9,2.8,2.3,3.1c2.1,1.9,4.9,2.8,7.6,1.8c-1.3,1.3-2.7,2.5-4,3.8c0-0.1-0.1-0.2-0.3-0.2c-2.2,0-4.1-0.6-5.8-1.9C32.5,19.9,32.6,17.7,32.7,15.5z M32.4,22.6c0.7,0.6,1.4,1.1,2.3,1.4c0.6,0.2,1.2,0.4,1.8,0.5c0.9,0.2,1.2-0.1,1.2,0.5c-1.7,1.6-3.4,3.2-5.2,4.8c-0.2,0.2-0.3,0.3-0.5,0.4C32.1,27.7,32.2,25.1,32.4,22.6z M32.2,30.9c2.3,0.2,4.6,0.4,7,0.7c-1.2,1.3-1.6,3.1-1.4,4.9c-1.7-1.6-3.3-3.1-5-4.7c-0.3-0.2-0.5-0.5-0.8-0.7C32,31,32.1,30.9,32.2,30.9z M32.2,32.3c1.5,1.5,3.1,2.9,4.6,4.3c-2.1-0.5-4.1,0.3-5.2,2.2c0.1-2.3,0.2-4.5,0.2-6.8C32,32.1,32.1,32.2,32.2,32.3z M21.8,19.8c1.7-0.4,3.2-1.2,4.5-2.3c2.9-2.4,4.4-5.9,5.7-9.4c0,2,0,3.9-0.1,5.9c0,0-0.1,0.1-0.1,0.1c-1.4,3.9-3.4,8.8-8.1,9.1c-1.1-1-2.2-2.1-3.3-3.1C20.7,19.9,21.2,20,21.8,19.8z M19.9,20.7c1,1,2,1.9,3.1,2.9c0.8,2.2,0.4,3.9-0.3,6c-1.6-0.1-3.1-0.2-4.7-0.3c0.1-0.4,0.5-0.8,0.7-1.2c0.9-1.5,1.4-3.3,1.4-5.1C20.1,22.3,19.7,21.3,19.9,20.7z M11.5,27.4c2.6-3.3,3.8-7.4,3.5-11.5c1.4,1.4,2.8,2.8,4.2,4.1c0.8,3.3,0,6.5-2.1,9.2c-2.3-0.1-4.5-0.2-6.8-0.3C10.5,28.4,11,28.1,11.5,27.4z M14.5,45.4c-0.1-0.3,0.4-1.5,0.4-1.8c0.3-1.9,0.3-3.8-0.1-5.6c-0.4-2-1.1-4-2.2-5.8c-0.5-0.8-1.1-1.6-1.7-2.2c-0.2-0.3-0.4-0.5-0.5-0.7c2.3,0.1,4.5,0.3,6.8,0.4c4.4,1.8,3.6,7.1,2.7,10.9C18.1,42.2,16.3,43.8,14.5,45.4z M30.5,52.6c-3-3.2-7.1-5.4-11.4-6.3c-1-0.2-2-0.4-3.1-0.5c-0.2,0-0.5,0-0.8,0c1.6-1.3,3.1-2.6,4.7-3.9c4.4-0.2,8.4,1.3,10.8,5.2C30.6,48.9,30.6,50.7,30.5,52.6z M30.7,46.1c-2.2-3.2-6.2-5.4-10.1-4.9c1.1-0.9,2.1-1.8,3.1-2.7c2.6-0.2,4.9,0.5,7.2,1.7C30.9,42.1,30.8,44.1,30.7,46.1z M31,39.6c-1.9-1.3-4.1-1.8-6.5-1.8c2.3-2,4.5-4.1,6.8-6.1C31.2,34.3,31.1,36.9,31,39.6z M46,46.4c-0.7,0.1-1.4,0.2-2.1,0.3c-1.8,0.3-3.6,0.8-5.3,1.5c-2.8,1.1-5.3,2.7-7.5,4.8c0.1-1.8,0.1-3.6,0.2-5.4c0.1,0,0.1-0.1,0.2-0.2c0.6-2.2,2.4-3.6,4.2-4.8c1.7-1.1,3.9-2.6,5.9-1.6c0.3,0.2,0.5,0.5,0.7,0.7c1.6,1.5,3.2,3.1,4.9,4.6C46.9,46.4,46.6,46.4,46,46.4z M52,33.3c-0.5,0.4-0.9,0.8-1.3,1.2c-0.9,1-1.7,2.2-2.3,3.4c-0.5,1.1-0.9,2.3-1,3.5c-0.2,1.4,0.1,2.6,0.1,4c-1.5-1.3-3-2.6-4.4-3.9c-0.2-0.2-0.4-0.4-0.6-0.6c-0.9-3.4,0.5-6.6,3.1-8.7c2.3,0.3,4.6,0.5,6.9,0.8C52.4,33.1,52.2,33.2,52,33.3z M46.3,31.5c-0.1-0.1-0.2-0.1-0.3-0.1c0,0,0,0,0,0c-3.4-2.2-3.2-7.5-2.5-11.1c1.4-1.4,2.8-2.7,4.2-4.1c0.1,0.8,0,2.3,0,2.7c0.2,1.8,0.5,3.7,1,5.4c0.5,1.7,1.1,3.4,1.9,5c0.3,0.6,0.6,1.2,1,1.7c0.2,0.3,0.9,0.7,1.1,1.1C50.5,31.9,48.4,31.7,46.3,31.5z"/><path fill="#1d1d1b" d="M44.1,38.1c0.1-0.1,0.2-0.2,0.3-0.3c2.3-1.7,6.2-0.8,8.8,2.1c0.3,0.3,0.6,0.7,0.8,1c0.3,0.5,0.6,1,0.9,1.5c0.5,1.1,0.7,2.2,0.8,3.2c0,0.2,0,0.5,0,0.7c0,0.1,0,0.3-0.1,0.4c-0.1,0.4-0.2,0.8-0.3,1.1c-0.2,0.5-0.6,1-1,1.4c-0.5,0.4-1.1,0.8-1.7,0.9c-0.5,0.1-1.1,0.2-1.6,0.2c-1,0-2-0.3-3-0.8c-0.1-0.1-0.2-0.1-0.4-0.2c-0.3-0.2-0.7-0.4-1-0.7c-0.5-0.4-1-0.8-1.4-1.3C42.2,44.4,41.8,40.2,44.1,38.1z"/><path fill="#333" d="M45,47.5c0.4,0.5,0.9,0.9,1.4,1.3c0.3,0.2,0.7,0.5,1,0.7c0.1,0.1,0.2,0.1,0.4,0.2c1,0.5,2,0.8,3,0.8c0.6,0,1.1,0,1.6-0.2c0.6-0.2,1.2-0.5,1.7-0.9c0.4-0.4,0.8-0.9,1-1.4c0.2-0.3,0.3-0.7,0.3-1.1c0-0.1,0-0.3,0.1-0.4c-1,0.4-2.5,0.8-3.4,0.9c-0.5,0-0.9,0-1.4,0c-0.1,0-0.2,0-0.4-0.1c-1.4-0.2-2.8-0.9-3.6-2.6c-1.6-3.2-2.1-5.6-2.4-6.8c-0.1,0.1-0.2,0.2-0.3,0.3C41.8,40.2,42.2,44.4,45,47.5z"/><path fill="#1a1a1a" d="M35.2,34.3c0,0.1,0.1,0.2,0.1,0.3c0,0.1,0.1,0.2,0.1,0.3c0.1,0.2,0.2,0.5,0.3,0.7c0,0,0,0.1,0,0.1c0,0,0.1,0.1,0.1,0.1c0,0.1,0.1,0.2,0.2,0.2c0,0,0,0,0,0c0,0.1,0.1,0.1,0.1,0.2c1.1,1.3,2.2,0.6,2.2,0.6l0-0.2l-0.1-0.4l0.6,0l0-0.6l0.4-0.1l-0.1-0.2c-0.2-0.1-0.4-0.3-0.6-0.4c-0.2-0.2-0.4-0.4-0.6-0.7c0,0,0,0,0,0c-0.2-0.3-0.3-0.6-0.3-0.9c-0.1-0.3-0.1-0.6-0.1-0.9c0,0.3,0.1,0.6,0.2,0.9c0.1,0.3,0.2,0.6,0.4,0.8c0,0.1,0.1,0.1,0.1,0.2c0.1,0.2,0.3,0.3,0.5,0.5c0.1,0.1,0.3,0.2,0.4,0.3l0.3-0.2l-0.2-0.5l-0.1-0.3l1.1-0.1l0.1-0.6l0.5,0.1l0.1-0.4c-0.1-0.1-0.1-0.2-0.2-0.3c-0.2-0.2-0.4-0.5-0.6-0.6c-0.3-0.2-0.5-0.3-0.8-0.4c-0.3-0.1-0.6-0.1-0.9-0.2c0.3,0,0.6,0,0.9,0.1c0.3,0.1,0.6,0.2,0.9,0.3c0.3,0.2,0.5,0.4,0.7,0.6c0.1,0.1,0.1,0.1,0.2,0.2c0,0,0,0,0,0L42,33l0,0l0.1-0.5c0,0,0.3,0.1,0.5,0.3c0-0.9-0.6-1.6-1.3-2.1c-0.9-0.7-2-1.2-2.2-1.2c-0.3-0.1-0.1-0.2,0.1-0.2c0.5,0,1,0.1,1.4,0.3c2.4,0.8,3,2.9,3,2.9l0.1-0.2l0.3,0.2l0.3-0.6c0,0,0.4,0.6,0.6,0.8c1.4-2.5-0.5-4.4-0.7-4.6c-0.2-0.1-0.1-0.2,0.1-0.1c3.4,2.1,1.3,5.3,1.3,5.3l0.3-0.2l0.1,0.3l0.3-0.1c0,0,0.2,0.5,0,0.7c2-0.3,3.4-3.3,3.5-3.6c0.1-0.2,0.2-0.2,0.2-0.1c0,0.1,0,0.2,0,0.3c0,0.1,0,0.1,0,0.2c0,0.2-0.1,0.4-0.1,0.6c0,0.2-0.1,0.3-0.2,0.5c-0.1,0.2-0.1,0.3-0.2,0.4c-0.9,1.7-2.5,2.5-2.5,2.5l0.3,0.2l-0.3,0.3l0.6,0.3c0,0-0.2,0.3-0.6,0.6c0,0,0.1,0,0.2,0h0.1c0.3,0,0.5,0,0.8-0.1c0.1,0,0.1,0,0.2,0c0.1,0,0.2-0.1,0.3-0.1c0.1,0,0.1,0,0.2-0.1c0.1,0,0.1-0.1,0.2-0.1c0.2-0.1,0.4-0.2,0.6-0.3c0.1-0.1,0.2-0.1,0.3-0.2c0,0,0.1-0.1,0.1-0.1c0,0,0.1-0.1,0.1-0.1c0.4-0.3,0.8-0.6,1.1-0.8c0,0,0.1,0,0.1-0.1c0,0,0,0,0,0c0,0,0,0,0,0s-2,2.6-4.5,2.3c0.1-0.3,0.2-0.5,0.2-0.5l-0.9,0l0.1-0.6l-1.1,0c-0.7-0.3-1.4-0.2-1.8,0.3c-0.3,0.4-0.4,0.9-0.3,1.3c0,0.1,0,0.1,0.1,0.2c0,0.1,0,0.1,0.1,0.2c0,0,0,0,0,0c0,0,0,0.1,0.1,0.1c-0.2-0.3-1.1-1.5,0.6-2.5c0-0.2-1.2-1.5-1.2-1.5L42.5,34l-0.6-0.2l-0.4-0.1l-0.2,0.5L41,34l0.1,0.7l-0.9,0l0,0.7l-0.3,0.1l0.2,0.3l-0.7,0.4l0.2,0.2l0,0l-0.7,0.4l0,0.2c0,0-1.9,0.8-3.1-1.3C35.6,35.4,35.4,34.9,35.2,34.3z"/><path fill="#333" d="M33.8,38.1c2.5,3,4.5,1.4,4.5,1.4l-0.5-0.2l0.2-0.5l-0.6-0.6l0.2-0.1l0.3-0.2c-1.7-0.7-2.4-1.8-2.8-2.7c-0.3-0.9-0.3-1.6-0.2-1.7c0.1-0.2,0.2,0,0.3,0.2c0.1,0.2,0.1,0.3,0.2,0.5v0c0.2,0.6,0.3,1.1,0.6,1.5c0.1,0.1,0.1,0.2,0.2,0.3c0.1,0.1,0.1,0.1,0.2,0.2c0.1,0.1,0.1,0.1,0.2,0.2c0,0,0,0,0,0c0.1,0.1,0.1,0.1,0.2,0.2c0.1,0.1,0.2,0.1,0.2,0.2c0.2,0.1,0.4,0.2,0.5,0.3c0.6,0.2,1.2,0.1,1.4,0c0.1,0,0.1,0,0.1,0l0-0.2l0.7-0.4l0,0l-0.2-0.2l0.7-0.4l-0.2-0.3l0.3-0.1l0-0.7l0.9,0L41,34l0.4,0.2l0.2-0.5l0.4,0.1l0.6,0.2l0.3-0.6c0,0,1.3,1.3,1.2,1.5c-1.7,1-0.8,2.3-0.6,2.5c0,0,0-0.1-0.1-0.1c0,0,0,0,0,0c0-0.1-0.1-0.1-0.1-0.2c0,0,0,0,0,0c0,0,0-0.1,0-0.1c0,0,0,0,0-0.1c0-0.1,0-0.1,0-0.2c0-0.2,0-0.5,0.1-0.7c0-0.1,0.1-0.2,0.1-0.2c0-0.1,0.1-0.1,0.2-0.2c0.4-0.5,1.1-0.6,1.8-0.3l1.1,0l-0.1,0.6l0.9,0c0,0-0.1,0.2-0.2,0.5c2.5,0.3,4.5-2.3,4.5-2.3s0,0,0,0c0.1-0.1,0.2-0.2,0.2-0.2c0,0,0.1,0.2,0,0.4c-2,2.8-4.5,2.6-4.5,2.6l0,0.2l-0.3,0l0.3,0.6l-0.4,0.1l0.4,0.7l-0.9-0.1l0.1,0.5L46,39l0.2,0.7l-0.6-0.1l0,0.1l-0.1,0.6l0,0.1L45,40.1l0,0.2l-0.3,0l-0.2,0.6l-0.8,0l-0.1,0.4c0,0-0.1,0-0.5-0.1c-0.6,3.8-2.8,4.5-3.2,4.6c-0.3,0.1-0.3,0-0.1-0.1c2.6-1.8,2.2-4.3,2.2-4.3l-0.2,0.3l-0.2-0.4l-0.4,0.5c0,0-0.3-0.4-0.5-0.7c-1.7,3.7-4.7,3.5-5.1,3.4c-0.4-0.1-0.3-0.2-0.1-0.2c2.8-0.4,4-3.3,4-3.3l-0.7,0l0.1-0.5c-3.7,0.7-5.3-2.5-5.3-2.7C33.5,37.8,33.6,37.9,33.8,38.1z"/><path fill="#1a1a1a" d="M50.2 31.3c0-.2.1-.4.1-.6C50.3 30.9 50.3 31.1 50.2 31.3zM35.3 34.6c0-.1-.1-.2-.1-.3l0 0C35.3 34.4 35.3 34.5 35.3 34.6z"/><path fill="red" d="M44.2,35.1c-0.5-0.7-1.8-0.6-2.4,0.2c-0.6,0.8-0.4,1.6,0.1,2c0.6,0.5,1.4,0.6,2.1-0.1C44.7,36.5,44.8,35.8,44.2,35.1z"/><path fill="#fff" d="M42.3,36.3c0.1-0.2-0.1-0.4-0.3-0.4c-0.2,0-0.4,0.2-0.2,0.4C42,36.4,42.2,36.6,42.3,36.3z"/><path fill="#c80909" d="M44.2,35.1c-0.5-0.7-1.8-0.6-2.4,0.2c-0.2,0.3-0.3,0.5-0.4,0.8c0.2-0.6,1.3-1,1.9-0.8c0.6,0.2,1.4,0.6,1.2,1.3c0,0,0,0,0,0C44.7,36.1,44.6,35.6,44.2,35.1z"/><path fill="red" d="M41.6,37.7c0,0,0.1,0.1,0.1,0.1c0.4,0.6,0.4,1.3,0,1.8c-0.4,0.5-1.1,0.6-1.8,0.3c0,0-0.1,0-0.1-0.1c-0.3-0.1-0.5-0.4-0.6-0.6c0,0,0,0,0,0c-0.2-0.4-0.2-0.8,0-1.2c0.3-0.7,1.3-1.4,2.1-0.8c0.1,0,0.1,0.1,0.1,0.1C41.5,37.5,41.6,37.6,41.6,37.7z"/><path fill="#fff" d="M39.5,38.3c-0.1,0.2,0.1,0.4,0.3,0.4c0.2,0,0.4-0.2,0.3-0.4C40,38.1,39.7,38,39.5,38.3z"/><path fill="#c80909" d="M41.2,37.3c-0.8-0.6-1.8,0.1-2.1,0.8c-0.2,0.4-0.2,0.9,0,1.2c0,0,0-0.1,0-0.1c-0.2-0.6,0.3-1.2,1.2-1.6c0.8-0.4,1.6,0.5,1.7,1.3C42.1,38.3,41.8,37.7,41.2,37.3z"/></svg>