<svg width="89" height="87" viewBox="0 0 89 87" fill="none" xmlns="http://www.w3.org/2000/svg">
<path id="Vector" d="M32.2162 63.6355L41.8461 54.0055M56.3218 39.5269L65.9517 29.897M16.579 16.5515L13.4273 13.3998M34.7003 8.46489V4M8.46489 34.6757H4M78.01 75.7042C68.6887 85.0256 53.5758 85.0256 44.2544 75.7042L24.9641 56.4139C23.6315 55.0813 23.6315 52.9247 24.9641 51.5921L29.7858 46.7704C31.1184 45.4378 33.275 45.4378 34.6076 46.7704L53.959 66.1218C57.9771 70.1399 64.5044 70.1128 68.4886 66.0573C72.4254 62.0528 72.3948 55.6238 68.4242 51.6532L49.0728 32.3018C47.7402 30.9692 47.7402 28.8126 49.0728 27.48L53.8945 22.6583C55.2271 21.3257 57.3837 21.3257 58.7163 22.6583L78.01 41.9486C87.3314 51.27 87.3314 66.3829 78.01 75.7042Z" stroke="#242425" stroke-width="7.86701" stroke-linecap="round" stroke-linejoin="round"/>
</svg>
