<svg xmlns="http://www.w3.org/2000/svg" enable-background="new 0 0 75 75" viewBox="0 0 75 75"><path d="M66.1411057,38.8414154c-23.7221642-2.0893555-45.2348633-15.269043-54.8066368-33.5776367
		c-0.1963911-0.3772407-0.7960672-0.3390751-0.9211426,0.0927124c-0.0006714,0.0021973-0.0030518,0.0031738-0.0036621,0.0054321
		c-6.9043231,24.9618301,4.3408546,52.3386879,28.5820313,64.5795898c0.2443314,0.1238174,0.5467529,0.0267563,0.671875-0.2207031
		c0.1245117-0.246582,0.0253906-0.5473633-0.2207031-0.671875c-4.6101685-2.3277588-8.8349628-5.3013306-12.5772724-8.7828369
		c3.5476685-4.2706909,9.1995258-6.8212891,14.5649433-6.5548096c3.6438599,2.6068726,7.5112915,4.8922119,11.5567627,6.7941895
		c0.25,0.1162109,0.5478516,0.0097656,0.6655273-0.2397461c0.1171875-0.25,0.0097656-0.5478516-0.2397461-0.6655273
		c-3.9796143-1.8709106-7.7842407-4.1184082-11.369812-6.6797485c-0.5337524-3.7214355-0.041748-6.614502,1.5997925-9.3432007
		c1.8051147-2.9998169,4.5938721-5.2850952,7.859375-6.4545288c4.6976929,1.3491821,9.5751343,2.2766113,14.5507774,2.7147827
		c0.2690964,0.0260391,0.5174179-0.1754189,0.5419922-0.4541016C66.6196213,39.108017,66.416008,38.8658295,66.1411057,38.8414154z
		 M12.0883741,37.1284637c1.6471214-3.756218,5.932704-5.4080086,9.581542-4.1055298
		c0.857666,1.3212891,1.7456055,2.62323,2.6843262,3.8897705c-3.7606888-0.9153519-8.5174007,0.4041328-10.8890371,3.9854736
		C12.9584303,39.656601,12.5006666,38.3991547,12.0883741,37.1284637z M9.9237013,27.7076874
		c2.0160151-3.7468872,6.3025637-2.9253788,7.5883169-1.9417725c1.0234985,2.0480957,2.1430664,4.0482178,3.3529053,5.9954834
		c-3.5529327-0.7101307-7.2496557,0.7691765-9.2001333,4.0238647C10.8800611,33.135849,10.299983,30.4349823,9.9237013,27.7076874z
		 M14.9852858,19.4533539c-1.5878124-0.7182159-3.8090258-0.9014931-5.5691528,0.1168823
		c0.0075684-0.6661987,0.0267334-1.3320923,0.0585327-1.9979858c0.9330368-1.9133492,3.2296658-2.1642389,4.6705933-0.6754761
		C14.43365,17.7439423,14.7152052,18.5957489,14.9852858,19.4533539z M15.7397413,18.5340424
		c-1.0465631-3.2511129-2.0785761-5.9821844-3.0886841-9.014039c1.671936,2.6277466,3.5874624,5.1349487,5.7225943,7.4991465
		C17.4019127,17.1354656,16.323616,17.6436443,15.7397413,18.5340424z M10.9189405,7.3868246
		c0.7960443,2.6204863,1.7399216,5.2273932,2.677063,7.9117432c-1.3349056-0.6095581-2.8611851-0.458272-4.0137329,0.5223999
		C9.808589,12.9885092,10.2489576,10.1674643,10.9189405,7.3868246z M9.4067945,20.7905731
		c1.8965855-1.512289,4.9813957-0.9603539,6.0340576,0.1729126c0.326829,1.1141872,0.1672297,0.8096695,1.3619375,3.3397827
		c-2.4863157-0.8128281-5.3242912-0.3948841-7.0657949,1.8526611C9.5425367,24.373703,9.4263258,22.5836029,9.4067945,20.7905731z
		 M26.9217472,24.8658905c-3.036808,0.89505-5.0902538,2.9544239-5.3928833,6.0936279
		c-1.1256714-1.8299561-2.1658936-3.7086182-3.1239014-5.6268311c0.3081665-1.9556274,2.4224854-3.7633057,4.4805908-3.8117676
		C24.1749821,22.6826019,25.5252018,23.795639,26.9217472,24.8658905z M22.5327702,32.5309906
		c-0.2014771-1.6464844,0.1828003-3.2122803,1.086853-4.4107666c0.8799438-1.1654663,2.6890869-2.1928711,4.335083-2.4745483
		c1.0085449,0.7429199,2.0390625,1.4646606,3.0961914,2.1582031c-3.8306885,1.0780029-5.8375244,4.0019531-5.8718872,8.553833
		C24.2535954,35.1111908,23.378046,33.8307953,22.5327702,32.5309906z M26.2254581,37.7109222
		c-0.3945923-5.263916,1.6229858-8.3449707,6.0035419-9.1585693c0.984314,0.6184692,1.9866943,1.2160034,3.0079346,1.7906494
		c-2.0554199,0.6083374-3.7735004,1.8761597-5.2169209,3.8675537c-1.2491455,1.7230835-1.8341675,3.7359009-1.7702637,5.991333
		C27.5572453,39.3853607,26.8825016,38.5554047,26.2254581,37.7109222z M29.3612003,41.5085907
		c-0.3745728-2.5859985,0.1152344-4.8447266,1.4683838-6.7111206c1.5390644-2.12323,3.4063129-3.3438721,5.7036152-3.7360229
		c0.9468384,0.5079346,1.9118652,0.9910278,2.8864746,1.4605103c-4.4420776,1.773262-8.0681534,6.1410294-7.885622,11.3336792
		C30.7935123,43.0883636,30.0687809,42.3058929,29.3612003,41.5085907z M32.6149864,44.9304047
		c-0.6606827-5.8282967,3.3120308-10.3471832,8.0923462-11.7984619c1.2084961,0.5540771,2.4349365,1.0804443,3.6803589,1.5739136
		c-5.5682335,2.3787804-8.7394638,8.3202705-8.7901611,13.039978
		C34.5779991,46.8343353,33.5841637,45.8953094,32.6149864,44.9304047z M21.9346256,20.637619
		c-1.7915649,0.3933105-3.4325562,1.7442627-4.1661377,3.3861084c-0.3731079-0.7866821-0.7442017-1.5744019-1.0878296-2.3737183
		c-0.3175316-1.1575603-0.7411337-2.1267757,0.2397461-2.9677734c0.6815796-0.5834351,1.7265015-0.8366699,2.4448242-0.5996704
		C20.1924381,18.9551849,21.0494328,19.8068085,21.9346256,20.637619z M13.9443312,42.0442963
		c2.2628412-4.1423225,8.0074797-5.399929,11.5325308-3.6784058c2.3081875,2.9635048,5.1111336,6.2175446,9.3279438,10.0067749
		c-4.9870014,0.0169067-9.7271137,2.6882324-12.5177021,7.0874634
		C18.8902264,51.4330788,16.0889282,46.9724922,13.9443312,42.0442963z M26.1309757,59.5857391
		c-1.1013184-1.0626221-2.1566772-2.1720581-3.1655273-3.3226929c2.7927856-4.6170654,7.8384399-7.2883301,13.0031147-6.845459
		c1.328186,1.145752,2.7041016,2.2331543,4.1066284,3.2844238C34.8647423,52.8796234,29.5675602,55.4747162,26.1309757,59.5857391z
		 M42.7866173,43.0616302c-1.5998535,2.6589355-2.1872559,5.5629883-1.8439331,9.0443115
		c-1.4758911-1.095459-2.9198608-2.2348022-4.3129272-3.4354248c-0.4286537-4.8067017,3.0177536-11.4089966,9.1682739-13.4284058
		c1.3695068,0.5115967,2.7585449,0.9857788,4.1655884,1.4216919C47.0008507,38.0065765,44.4848595,40.2389984,42.7866173,43.0616302
		z"/></svg>